<svg width="20" height="20" viewBox="0 0 20 20" fill="none" xmlns="http://www.w3.org/2000/svg">
<mask id="mask0_526_199" style="mask-type:alpha" maskUnits="userSpaceOnUse" x="0" y="0" width="20" height="20">
<circle cx="10" cy="10" r="10" fill="#D9D9D9"/>
</mask>
<g mask="url(#mask0_526_199)">
<path d="M24.7597 0H9.68774V10.3125H27.9328V3.17308C27.9328 2.33153 27.5985 1.52444 27.0034 0.929373C26.4084 0.334305 25.6013 0 24.7597 0Z" fill="#FC3D32"/>
<path d="M9.68774 20.625H24.7597C25.6013 20.625 26.4084 20.2907 27.0034 19.6956C27.5985 19.1006 27.9328 18.2935 27.9328 17.4519V10.3125H9.68774V20.625Z" fill="#007E3A"/>
<path d="M9.68742 0H2.54805C1.70651 0 0.899428 0.334305 0.304366 0.929373C-0.290697 1.52444 -0.625 2.33153 -0.625 3.17308L-0.625 17.4519C-0.625 18.2935 -0.290697 19.1006 0.304366 19.6956C0.899428 20.2907 1.70651 20.625 2.54805 20.625H9.68742V0Z" fill="#EEEEEE"/>
</g>
</svg>
